<svg width="140" height="60" viewBox="0 0 140 60" fill="none" xmlns="http://www.w3.org/2000/svg">
<path d="M11.22 12.95C13.24 12.95 14.84 13.54 16.02 14.72C17.22 15.88 17.82 17.59 17.82 19.85V29H14.94V20.18C14.94 18.64 14.57 17.48 13.83 16.7C13.09 15.92 12.03 15.53 10.65 15.53C9.09 15.53 7.86 15.99 6.96 16.91C6.06 17.81 5.61 19.11 5.61 20.81V29H2.73V6.74H5.61V15.35C6.21 14.59 6.99 14 7.95 13.58C8.93 13.16 10.02 12.95 11.22 12.95ZM30.4399 12.95C32.6399 12.95 34.3199 13.49 35.4799 14.57C36.6599 15.65 37.2499 17.26 37.2499 19.4V29H34.5199V26.9C34.0399 27.64 33.3499 28.21 32.4499 28.61C31.5699 28.99 30.5199 29.18 29.2999 29.18C27.5199 29.18 26.0899 28.75 25.0099 27.89C23.9499 27.03 23.4199 25.9 23.4199 24.5C23.4199 23.1 23.9299 21.98 24.9499 21.14C25.9699 20.28 27.5899 19.85 29.8099 19.85H34.3699V19.28C34.3699 18.04 34.0099 17.09 33.2899 16.43C32.5699 15.77 31.5099 15.44 30.1099 15.44C29.1699 15.44 28.2499 15.6 27.3499 15.92C26.4499 16.22 25.6899 16.63 25.0699 17.15L23.8699 14.99C24.6899 14.33 25.6699 13.83 26.8099 13.49C27.9499 13.13 29.1599 12.95 30.4399 12.95ZM29.7799 26.96C30.8799 26.96 31.8299 26.72 32.6299 26.24C33.4299 25.74 34.0099 25.04 34.3699 24.14V21.92H29.9299C27.4899 21.92 26.2699 22.74 26.2699 24.38C26.2699 25.18 26.5799 25.81 27.1999 26.27C27.8199 26.73 28.6799 26.96 29.7799 26.96ZM44.0796 6.74H46.9596V29H44.0796V6.74ZM59.7785 8.93C58.0585 8.93 57.1985 9.86 57.1985 11.72V13.1H61.8185V15.47H57.2585V29H54.3785V15.47H51.6785V13.1H54.3785V11.69C54.3785 10.11 54.8385 8.86 55.7585 7.94C56.6785 7.02 57.9685 6.56 59.6285 6.56C60.2685 6.56 60.8685 6.64 61.4285 6.8C61.9885 6.96 62.4685 7.19 62.8685 7.49L61.9985 9.68C61.3385 9.18 60.5985 8.93 59.7785 8.93Z" fill="white"/>
<path d="M98.8488 38.1L92.9088 54H90.1488L85.5588 41.94L80.9088 54H78.1488L72.2388 38.1H74.9688L79.5888 50.76L84.3888 38.1H86.8188L91.5288 50.82L96.2688 38.1H98.8488ZM108.563 37.95C110.763 37.95 112.443 38.49 113.603 39.57C114.783 40.65 115.373 42.26 115.373 44.4V54H112.643V51.9C112.163 52.64 111.473 53.21 110.573 53.61C109.693 53.99 108.643 54.18 107.423 54.18C105.643 54.18 104.213 53.75 103.133 52.89C102.073 52.03 101.543 50.9 101.543 49.5C101.543 48.1 102.053 46.98 103.073 46.14C104.093 45.28 105.713 44.85 107.933 44.85H112.493V44.28C112.493 43.04 112.133 42.09 111.413 41.43C110.693 40.77 109.633 40.44 108.233 40.44C107.293 40.44 106.373 40.6 105.473 40.92C104.573 41.22 103.813 41.63 103.193 42.15L101.993 39.99C102.813 39.33 103.793 38.83 104.933 38.49C106.073 38.13 107.283 37.95 108.563 37.95ZM107.903 51.96C109.003 51.96 109.953 51.72 110.753 51.24C111.553 50.74 112.133 50.04 112.493 49.14V46.92H108.053C105.613 46.92 104.393 47.74 104.393 49.38C104.393 50.18 104.703 50.81 105.323 51.27C105.943 51.73 106.803 51.96 107.903 51.96ZM135.98 38.1L128.27 55.59C127.59 57.21 126.79 58.35 125.87 59.01C124.97 59.67 123.88 60 122.6 60C121.82 60 121.06 59.87 120.32 59.61C119.6 59.37 119 59.01 118.52 58.53L119.75 56.37C120.57 57.15 121.52 57.54 122.6 57.54C123.3 57.54 123.88 57.35 124.34 56.97C124.82 56.61 125.25 55.98 125.63 55.08L126.14 53.97L119.12 38.1H122.12L127.67 50.82L133.16 38.1H135.98Z" fill="white"/>
<path d="M49.0244 54.5L85.0538 14.5" stroke="white" stroke-width="2.5"/>
<path d="M49.0244 54.5L85.0538 14.5" stroke="white" stroke-width="2.5"/>
</svg>
