<svg width="501" height="654" viewBox="0 0 501 654" fill="none" xmlns="http://www.w3.org/2000/svg">
<rect width="501" height="654" fill="#A3AAD3"/>
<circle cx="157" cy="190" r="64" fill="#262556"/>
<path d="M116.893 315.825L116.293 320.675H119.768V322.5H116.068L115.518 327H113.743L114.293 322.5H109.568L109.018 327H107.243L107.793 322.5H104.343V320.675H108.018L108.643 315.825H105.143V314H108.868L109.418 309.5H111.193L110.643 314H115.343L115.893 309.5H117.668L117.118 314H120.568V315.825H116.893ZM115.118 315.825H110.418L109.793 320.675H114.518L115.118 315.825ZM134.746 324.825V327H122.171V325.3L129.296 318.425C130.163 317.592 130.746 316.875 131.046 316.275C131.346 315.658 131.496 315.042 131.496 314.425C131.496 313.508 131.171 312.8 130.521 312.3C129.888 311.783 128.971 311.525 127.771 311.525C125.838 311.525 124.346 312.158 123.296 313.425L121.596 311.95C122.279 311.117 123.171 310.467 124.271 310C125.388 309.533 126.629 309.3 127.996 309.3C129.829 309.3 131.288 309.742 132.371 310.625C133.454 311.492 133.996 312.675 133.996 314.175C133.996 315.108 133.796 315.992 133.396 316.825C132.996 317.658 132.238 318.608 131.121 319.675L125.771 324.825H134.746ZM144.278 316.375C145.428 316.375 146.453 316.592 147.353 317.025C148.27 317.458 148.987 318.083 149.503 318.9C150.02 319.7 150.278 320.625 150.278 321.675C150.278 322.775 150.003 323.742 149.453 324.575C148.92 325.408 148.178 326.058 147.228 326.525C146.295 326.975 145.245 327.2 144.078 327.2C141.728 327.2 139.912 326.442 138.628 324.925C137.362 323.408 136.728 321.258 136.728 318.475C136.728 316.525 137.07 314.867 137.753 313.5C138.453 312.117 139.42 311.075 140.653 310.375C141.903 309.658 143.353 309.3 145.003 309.3C145.853 309.3 146.653 309.392 147.403 309.575C148.153 309.742 148.803 309.992 149.353 310.325L148.403 312.275C147.57 311.725 146.453 311.45 145.053 311.45C143.237 311.45 141.812 312.017 140.778 313.15C139.745 314.267 139.228 315.9 139.228 318.05C139.228 318.317 139.237 318.525 139.253 318.675C139.753 317.925 140.437 317.358 141.303 316.975C142.187 316.575 143.178 316.375 144.278 316.375ZM143.978 325.175C145.128 325.175 146.062 324.867 146.778 324.25C147.495 323.633 147.853 322.808 147.853 321.775C147.853 320.742 147.487 319.925 146.753 319.325C146.037 318.708 145.07 318.4 143.853 318.4C143.07 318.4 142.37 318.55 141.753 318.85C141.153 319.15 140.678 319.558 140.328 320.075C139.995 320.592 139.828 321.167 139.828 321.8C139.828 322.417 139.987 322.983 140.303 323.5C140.637 324 141.112 324.408 141.728 324.725C142.362 325.025 143.112 325.175 143.978 325.175ZM164.458 324.825V327H151.883V325.3L159.008 318.425C159.875 317.592 160.458 316.875 160.758 316.275C161.058 315.658 161.208 315.042 161.208 314.425C161.208 313.508 160.883 312.8 160.233 312.3C159.6 311.783 158.683 311.525 157.483 311.525C155.55 311.525 154.058 312.158 153.008 313.425L151.308 311.95C151.991 311.117 152.883 310.467 153.983 310C155.1 309.533 156.341 309.3 157.708 309.3C159.541 309.3 161 309.742 162.083 310.625C163.166 311.492 163.708 312.675 163.708 314.175C163.708 315.108 163.508 315.992 163.108 316.825C162.708 317.658 161.95 318.608 160.833 319.675L155.483 324.825H164.458ZM171.513 316.475C174.013 316.475 175.847 316.95 177.013 317.9C178.197 318.833 178.788 320.117 178.788 321.75C178.788 322.783 178.538 323.717 178.038 324.55C177.555 325.367 176.813 326.017 175.813 326.5C174.83 326.967 173.613 327.2 172.163 327.2C170.93 327.2 169.738 327.017 168.588 326.65C167.438 326.267 166.488 325.742 165.738 325.075L166.888 323.1C167.488 323.667 168.255 324.125 169.188 324.475C170.122 324.808 171.105 324.975 172.138 324.975C173.455 324.975 174.472 324.7 175.188 324.15C175.922 323.583 176.288 322.817 176.288 321.85C176.288 320.8 175.888 320.008 175.088 319.475C174.288 318.925 172.922 318.65 170.988 318.65H167.013L167.938 309.5H177.813V311.675H170.038L169.563 316.475H171.513ZM185.747 316.475C188.247 316.475 190.08 316.95 191.247 317.9C192.43 318.833 193.022 320.117 193.022 321.75C193.022 322.783 192.772 323.717 192.272 324.55C191.789 325.367 191.047 326.017 190.047 326.5C189.064 326.967 187.847 327.2 186.397 327.2C185.164 327.2 183.972 327.017 182.822 326.65C181.672 326.267 180.722 325.742 179.972 325.075L181.122 323.1C181.722 323.667 182.489 324.125 183.422 324.475C184.355 324.808 185.339 324.975 186.372 324.975C187.689 324.975 188.705 324.7 189.422 324.15C190.155 323.583 190.522 322.817 190.522 321.85C190.522 320.8 190.122 320.008 189.322 319.475C188.522 318.925 187.155 318.65 185.222 318.65H181.247L182.172 309.5H192.047V311.675H184.272L183.797 316.475H185.747ZM202.652 316.375C203.802 316.375 204.827 316.592 205.727 317.025C206.644 317.458 207.361 318.083 207.877 318.9C208.394 319.7 208.652 320.625 208.652 321.675C208.652 322.775 208.377 323.742 207.827 324.575C207.294 325.408 206.552 326.058 205.602 326.525C204.669 326.975 203.619 327.2 202.452 327.2C200.102 327.2 198.286 326.442 197.002 324.925C195.736 323.408 195.102 321.258 195.102 318.475C195.102 316.525 195.444 314.867 196.127 313.5C196.827 312.117 197.794 311.075 199.027 310.375C200.277 309.658 201.727 309.3 203.377 309.3C204.227 309.3 205.027 309.392 205.777 309.575C206.527 309.742 207.177 309.992 207.727 310.325L206.777 312.275C205.944 311.725 204.827 311.45 203.427 311.45C201.611 311.45 200.186 312.017 199.152 313.15C198.119 314.267 197.602 315.9 197.602 318.05C197.602 318.317 197.611 318.525 197.627 318.675C198.127 317.925 198.811 317.358 199.677 316.975C200.561 316.575 201.552 316.375 202.652 316.375ZM202.352 325.175C203.502 325.175 204.436 324.867 205.152 324.25C205.869 323.633 206.227 322.808 206.227 321.775C206.227 320.742 205.861 319.925 205.127 319.325C204.411 318.708 203.444 318.4 202.227 318.4C201.444 318.4 200.744 318.55 200.127 318.85C199.527 319.15 199.052 319.558 198.702 320.075C198.369 320.592 198.202 321.167 198.202 321.8C198.202 322.417 198.361 322.983 198.677 323.5C199.011 324 199.486 324.408 200.102 324.725C200.736 325.025 201.486 325.175 202.352 325.175Z" fill="#262556"/>
<rect x="103" y="279" width="110" height="4" rx="2" fill="#262556"/>
<circle cx="342" cy="197" r="64" fill="#8988C5"/>
<path d="M291.893 317.825L291.293 322.675H294.768V324.5H291.068L290.518 329H288.743L289.293 324.5H284.568L284.018 329H282.243L282.793 324.5H279.343V322.675H283.018L283.643 317.825H280.143V316H283.868L284.418 311.5H286.193L285.643 316H290.343L290.893 311.5H292.668L292.118 316H295.568V317.825H291.893ZM290.118 317.825H285.418L284.793 322.675H289.518L290.118 317.825ZM309.746 326.825V329H297.171V327.3L304.296 320.425C305.163 319.592 305.746 318.875 306.046 318.275C306.346 317.658 306.496 317.042 306.496 316.425C306.496 315.508 306.171 314.8 305.521 314.3C304.888 313.783 303.971 313.525 302.771 313.525C300.838 313.525 299.346 314.158 298.296 315.425L296.596 313.95C297.279 313.117 298.171 312.467 299.271 312C300.388 311.533 301.629 311.3 302.996 311.3C304.829 311.3 306.288 311.742 307.371 312.625C308.454 313.492 308.996 314.675 308.996 316.175C308.996 317.108 308.796 317.992 308.396 318.825C307.996 319.658 307.238 320.608 306.121 321.675L300.771 326.825H309.746ZM319.278 318.375C320.428 318.375 321.453 318.592 322.353 319.025C323.27 319.458 323.987 320.083 324.503 320.9C325.02 321.7 325.278 322.625 325.278 323.675C325.278 324.775 325.003 325.742 324.453 326.575C323.92 327.408 323.178 328.058 322.228 328.525C321.295 328.975 320.245 329.2 319.078 329.2C316.728 329.2 314.912 328.442 313.628 326.925C312.362 325.408 311.728 323.258 311.728 320.475C311.728 318.525 312.07 316.867 312.753 315.5C313.453 314.117 314.42 313.075 315.653 312.375C316.903 311.658 318.353 311.3 320.003 311.3C320.853 311.3 321.653 311.392 322.403 311.575C323.153 311.742 323.803 311.992 324.353 312.325L323.403 314.275C322.57 313.725 321.453 313.45 320.053 313.45C318.237 313.45 316.812 314.017 315.778 315.15C314.745 316.267 314.228 317.9 314.228 320.05C314.228 320.317 314.237 320.525 314.253 320.675C314.753 319.925 315.437 319.358 316.303 318.975C317.187 318.575 318.178 318.375 319.278 318.375ZM318.978 327.175C320.128 327.175 321.062 326.867 321.778 326.25C322.495 325.633 322.853 324.808 322.853 323.775C322.853 322.742 322.487 321.925 321.753 321.325C321.037 320.708 320.07 320.4 318.853 320.4C318.07 320.4 317.37 320.55 316.753 320.85C316.153 321.15 315.678 321.558 315.328 322.075C314.995 322.592 314.828 323.167 314.828 323.8C314.828 324.417 314.987 324.983 315.303 325.5C315.637 326 316.112 326.408 316.728 326.725C317.362 327.025 318.112 327.175 318.978 327.175ZM339.458 326.825V329H326.883V327.3L334.008 320.425C334.875 319.592 335.458 318.875 335.758 318.275C336.058 317.658 336.208 317.042 336.208 316.425C336.208 315.508 335.883 314.8 335.233 314.3C334.6 313.783 333.683 313.525 332.483 313.525C330.55 313.525 329.058 314.158 328.008 315.425L326.308 313.95C326.991 313.117 327.883 312.467 328.983 312C330.1 311.533 331.341 311.3 332.708 311.3C334.541 311.3 336 311.742 337.083 312.625C338.166 313.492 338.708 314.675 338.708 316.175C338.708 317.108 338.508 317.992 338.108 318.825C337.708 319.658 336.95 320.608 335.833 321.675L330.483 326.825H339.458ZM346.513 318.475C349.013 318.475 350.847 318.95 352.013 319.9C353.197 320.833 353.788 322.117 353.788 323.75C353.788 324.783 353.538 325.717 353.038 326.55C352.555 327.367 351.813 328.017 350.813 328.5C349.83 328.967 348.613 329.2 347.163 329.2C345.93 329.2 344.738 329.017 343.588 328.65C342.438 328.267 341.488 327.742 340.738 327.075L341.888 325.1C342.488 325.667 343.255 326.125 344.188 326.475C345.122 326.808 346.105 326.975 347.138 326.975C348.455 326.975 349.472 326.7 350.188 326.15C350.922 325.583 351.288 324.817 351.288 323.85C351.288 322.8 350.888 322.008 350.088 321.475C349.288 320.925 347.922 320.65 345.988 320.65H342.013L342.938 311.5H352.813V313.675H345.038L344.563 318.475H346.513ZM360.747 318.475C363.247 318.475 365.08 318.95 366.247 319.9C367.43 320.833 368.022 322.117 368.022 323.75C368.022 324.783 367.772 325.717 367.272 326.55C366.789 327.367 366.047 328.017 365.047 328.5C364.064 328.967 362.847 329.2 361.397 329.2C360.164 329.2 358.972 329.017 357.822 328.65C356.672 328.267 355.722 327.742 354.972 327.075L356.122 325.1C356.722 325.667 357.489 326.125 358.422 326.475C359.355 326.808 360.339 326.975 361.372 326.975C362.689 326.975 363.705 326.7 364.422 326.15C365.155 325.583 365.522 324.817 365.522 323.85C365.522 322.8 365.122 322.008 364.322 321.475C363.522 320.925 362.155 320.65 360.222 320.65H356.247L357.172 311.5H367.047V313.675H359.272L358.797 318.475H360.747ZM377.652 318.375C378.802 318.375 379.827 318.592 380.727 319.025C381.644 319.458 382.361 320.083 382.877 320.9C383.394 321.7 383.652 322.625 383.652 323.675C383.652 324.775 383.377 325.742 382.827 326.575C382.294 327.408 381.552 328.058 380.602 328.525C379.669 328.975 378.619 329.2 377.452 329.2C375.102 329.2 373.286 328.442 372.002 326.925C370.736 325.408 370.102 323.258 370.102 320.475C370.102 318.525 370.444 316.867 371.127 315.5C371.827 314.117 372.794 313.075 374.027 312.375C375.277 311.658 376.727 311.3 378.377 311.3C379.227 311.3 380.027 311.392 380.777 311.575C381.527 311.742 382.177 311.992 382.727 312.325L381.777 314.275C380.944 313.725 379.827 313.45 378.427 313.45C376.611 313.45 375.186 314.017 374.152 315.15C373.119 316.267 372.602 317.9 372.602 320.05C372.602 320.317 372.611 320.525 372.627 320.675C373.127 319.925 373.811 319.358 374.677 318.975C375.561 318.575 376.552 318.375 377.652 318.375ZM377.352 327.175C378.502 327.175 379.436 326.867 380.152 326.25C380.869 325.633 381.227 324.808 381.227 323.775C381.227 322.742 380.861 321.925 380.127 321.325C379.411 320.708 378.444 320.4 377.227 320.4C376.444 320.4 375.744 320.55 375.127 320.85C374.527 321.15 374.052 321.558 373.702 322.075C373.369 322.592 373.202 323.167 373.202 323.8C373.202 324.417 373.361 324.983 373.677 325.5C374.011 326 374.486 326.408 375.102 326.725C375.736 327.025 376.486 327.175 377.352 327.175Z" fill="#8988C5"/>
<rect x="288" y="286" width="110" height="4" rx="2" fill="#8988C5"/>
<circle cx="157" cy="446" r="64" fill="#DFDCF0"/>
<circle cx="342" cy="446" r="64" fill="white"/>
<path d="M116.893 567.825L116.293 572.675H119.768V574.5H116.068L115.518 579H113.743L114.293 574.5H109.568L109.018 579H107.243L107.793 574.5H104.343V572.675H108.018L108.643 567.825H105.143V566H108.868L109.418 561.5H111.193L110.643 566H115.343L115.893 561.5H117.668L117.118 566H120.568V567.825H116.893ZM115.118 567.825H110.418L109.793 572.675H114.518L115.118 567.825ZM134.746 576.825V579H122.171V577.3L129.296 570.425C130.163 569.592 130.746 568.875 131.046 568.275C131.346 567.658 131.496 567.042 131.496 566.425C131.496 565.508 131.171 564.8 130.521 564.3C129.888 563.783 128.971 563.525 127.771 563.525C125.838 563.525 124.346 564.158 123.296 565.425L121.596 563.95C122.279 563.117 123.171 562.467 124.271 562C125.388 561.533 126.629 561.3 127.996 561.3C129.829 561.3 131.288 561.742 132.371 562.625C133.454 563.492 133.996 564.675 133.996 566.175C133.996 567.108 133.796 567.992 133.396 568.825C132.996 569.658 132.238 570.608 131.121 571.675L125.771 576.825H134.746ZM144.278 568.375C145.428 568.375 146.453 568.592 147.353 569.025C148.27 569.458 148.987 570.083 149.503 570.9C150.02 571.7 150.278 572.625 150.278 573.675C150.278 574.775 150.003 575.742 149.453 576.575C148.92 577.408 148.178 578.058 147.228 578.525C146.295 578.975 145.245 579.2 144.078 579.2C141.728 579.2 139.912 578.442 138.628 576.925C137.362 575.408 136.728 573.258 136.728 570.475C136.728 568.525 137.07 566.867 137.753 565.5C138.453 564.117 139.42 563.075 140.653 562.375C141.903 561.658 143.353 561.3 145.003 561.3C145.853 561.3 146.653 561.392 147.403 561.575C148.153 561.742 148.803 561.992 149.353 562.325L148.403 564.275C147.57 563.725 146.453 563.45 145.053 563.45C143.237 563.45 141.812 564.017 140.778 565.15C139.745 566.267 139.228 567.9 139.228 570.05C139.228 570.317 139.237 570.525 139.253 570.675C139.753 569.925 140.437 569.358 141.303 568.975C142.187 568.575 143.178 568.375 144.278 568.375ZM143.978 577.175C145.128 577.175 146.062 576.867 146.778 576.25C147.495 575.633 147.853 574.808 147.853 573.775C147.853 572.742 147.487 571.925 146.753 571.325C146.037 570.708 145.07 570.4 143.853 570.4C143.07 570.4 142.37 570.55 141.753 570.85C141.153 571.15 140.678 571.558 140.328 572.075C139.995 572.592 139.828 573.167 139.828 573.8C139.828 574.417 139.987 574.983 140.303 575.5C140.637 576 141.112 576.408 141.728 576.725C142.362 577.025 143.112 577.175 143.978 577.175ZM164.458 576.825V579H151.883V577.3L159.008 570.425C159.875 569.592 160.458 568.875 160.758 568.275C161.058 567.658 161.208 567.042 161.208 566.425C161.208 565.508 160.883 564.8 160.233 564.3C159.6 563.783 158.683 563.525 157.483 563.525C155.55 563.525 154.058 564.158 153.008 565.425L151.308 563.95C151.991 563.117 152.883 562.467 153.983 562C155.1 561.533 156.341 561.3 157.708 561.3C159.541 561.3 161 561.742 162.083 562.625C163.166 563.492 163.708 564.675 163.708 566.175C163.708 567.108 163.508 567.992 163.108 568.825C162.708 569.658 161.95 570.608 160.833 571.675L155.483 576.825H164.458ZM171.513 568.475C174.013 568.475 175.847 568.95 177.013 569.9C178.197 570.833 178.788 572.117 178.788 573.75C178.788 574.783 178.538 575.717 178.038 576.55C177.555 577.367 176.813 578.017 175.813 578.5C174.83 578.967 173.613 579.2 172.163 579.2C170.93 579.2 169.738 579.017 168.588 578.65C167.438 578.267 166.488 577.742 165.738 577.075L166.888 575.1C167.488 575.667 168.255 576.125 169.188 576.475C170.122 576.808 171.105 576.975 172.138 576.975C173.455 576.975 174.472 576.7 175.188 576.15C175.922 575.583 176.288 574.817 176.288 573.85C176.288 572.8 175.888 572.008 175.088 571.475C174.288 570.925 172.922 570.65 170.988 570.65H167.013L167.938 561.5H177.813V563.675H170.038L169.563 568.475H171.513ZM185.747 568.475C188.247 568.475 190.08 568.95 191.247 569.9C192.43 570.833 193.022 572.117 193.022 573.75C193.022 574.783 192.772 575.717 192.272 576.55C191.789 577.367 191.047 578.017 190.047 578.5C189.064 578.967 187.847 579.2 186.397 579.2C185.164 579.2 183.972 579.017 182.822 578.65C181.672 578.267 180.722 577.742 179.972 577.075L181.122 575.1C181.722 575.667 182.489 576.125 183.422 576.475C184.355 576.808 185.339 576.975 186.372 576.975C187.689 576.975 188.705 576.7 189.422 576.15C190.155 575.583 190.522 574.817 190.522 573.85C190.522 572.8 190.122 572.008 189.322 571.475C188.522 570.925 187.155 570.65 185.222 570.65H181.247L182.172 561.5H192.047V563.675H184.272L183.797 568.475H185.747ZM202.652 568.375C203.802 568.375 204.827 568.592 205.727 569.025C206.644 569.458 207.361 570.083 207.877 570.9C208.394 571.7 208.652 572.625 208.652 573.675C208.652 574.775 208.377 575.742 207.827 576.575C207.294 577.408 206.552 578.058 205.602 578.525C204.669 578.975 203.619 579.2 202.452 579.2C200.102 579.2 198.286 578.442 197.002 576.925C195.736 575.408 195.102 573.258 195.102 570.475C195.102 568.525 195.444 566.867 196.127 565.5C196.827 564.117 197.794 563.075 199.027 562.375C200.277 561.658 201.727 561.3 203.377 561.3C204.227 561.3 205.027 561.392 205.777 561.575C206.527 561.742 207.177 561.992 207.727 562.325L206.777 564.275C205.944 563.725 204.827 563.45 203.427 563.45C201.611 563.45 200.186 564.017 199.152 565.15C198.119 566.267 197.602 567.9 197.602 570.05C197.602 570.317 197.611 570.525 197.627 570.675C198.127 569.925 198.811 569.358 199.677 568.975C200.561 568.575 201.552 568.375 202.652 568.375ZM202.352 577.175C203.502 577.175 204.436 576.867 205.152 576.25C205.869 575.633 206.227 574.808 206.227 573.775C206.227 572.742 205.861 571.925 205.127 571.325C204.411 570.708 203.444 570.4 202.227 570.4C201.444 570.4 200.744 570.55 200.127 570.85C199.527 571.15 199.052 571.558 198.702 572.075C198.369 572.592 198.202 573.167 198.202 573.8C198.202 574.417 198.361 574.983 198.677 575.5C199.011 576 199.486 576.408 200.102 576.725C200.736 577.025 201.486 577.175 202.352 577.175Z" fill="#DFDCF0"/>
<path d="M301.893 567.825L301.293 572.675H304.768V574.5H301.068L300.518 579H298.743L299.293 574.5H294.568L294.018 579H292.243L292.793 574.5H289.343V572.675H293.018L293.643 567.825H290.143V566H293.868L294.418 561.5H296.193L295.643 566H300.343L300.893 561.5H302.668L302.118 566H305.568V567.825H301.893ZM300.118 567.825H295.418L294.793 572.675H299.518L300.118 567.825ZM319.746 576.825V579H307.171V577.3L314.296 570.425C315.163 569.592 315.746 568.875 316.046 568.275C316.346 567.658 316.496 567.042 316.496 566.425C316.496 565.508 316.171 564.8 315.521 564.3C314.888 563.783 313.971 563.525 312.771 563.525C310.838 563.525 309.346 564.158 308.296 565.425L306.596 563.95C307.279 563.117 308.171 562.467 309.271 562C310.388 561.533 311.629 561.3 312.996 561.3C314.829 561.3 316.288 561.742 317.371 562.625C318.454 563.492 318.996 564.675 318.996 566.175C318.996 567.108 318.796 567.992 318.396 568.825C317.996 569.658 317.238 570.608 316.121 571.675L310.771 576.825H319.746ZM329.278 568.375C330.428 568.375 331.453 568.592 332.353 569.025C333.27 569.458 333.987 570.083 334.503 570.9C335.02 571.7 335.278 572.625 335.278 573.675C335.278 574.775 335.003 575.742 334.453 576.575C333.92 577.408 333.178 578.058 332.228 578.525C331.295 578.975 330.245 579.2 329.078 579.2C326.728 579.2 324.912 578.442 323.628 576.925C322.362 575.408 321.728 573.258 321.728 570.475C321.728 568.525 322.07 566.867 322.753 565.5C323.453 564.117 324.42 563.075 325.653 562.375C326.903 561.658 328.353 561.3 330.003 561.3C330.853 561.3 331.653 561.392 332.403 561.575C333.153 561.742 333.803 561.992 334.353 562.325L333.403 564.275C332.57 563.725 331.453 563.45 330.053 563.45C328.237 563.45 326.812 564.017 325.778 565.15C324.745 566.267 324.228 567.9 324.228 570.05C324.228 570.317 324.237 570.525 324.253 570.675C324.753 569.925 325.437 569.358 326.303 568.975C327.187 568.575 328.178 568.375 329.278 568.375ZM328.978 577.175C330.128 577.175 331.062 576.867 331.778 576.25C332.495 575.633 332.853 574.808 332.853 573.775C332.853 572.742 332.487 571.925 331.753 571.325C331.037 570.708 330.07 570.4 328.853 570.4C328.07 570.4 327.37 570.55 326.753 570.85C326.153 571.15 325.678 571.558 325.328 572.075C324.995 572.592 324.828 573.167 324.828 573.8C324.828 574.417 324.987 574.983 325.303 575.5C325.637 576 326.112 576.408 326.728 576.725C327.362 577.025 328.112 577.175 328.978 577.175ZM349.458 576.825V579H336.883V577.3L344.008 570.425C344.875 569.592 345.458 568.875 345.758 568.275C346.058 567.658 346.208 567.042 346.208 566.425C346.208 565.508 345.883 564.8 345.233 564.3C344.6 563.783 343.683 563.525 342.483 563.525C340.55 563.525 339.058 564.158 338.008 565.425L336.308 563.95C336.991 563.117 337.883 562.467 338.983 562C340.1 561.533 341.341 561.3 342.708 561.3C344.541 561.3 346 561.742 347.083 562.625C348.166 563.492 348.708 564.675 348.708 566.175C348.708 567.108 348.508 567.992 348.108 568.825C347.708 569.658 346.95 570.608 345.833 571.675L340.483 576.825H349.458ZM356.513 568.475C359.013 568.475 360.847 568.95 362.013 569.9C363.197 570.833 363.788 572.117 363.788 573.75C363.788 574.783 363.538 575.717 363.038 576.55C362.555 577.367 361.813 578.017 360.813 578.5C359.83 578.967 358.613 579.2 357.163 579.2C355.93 579.2 354.738 579.017 353.588 578.65C352.438 578.267 351.488 577.742 350.738 577.075L351.888 575.1C352.488 575.667 353.255 576.125 354.188 576.475C355.122 576.808 356.105 576.975 357.138 576.975C358.455 576.975 359.472 576.7 360.188 576.15C360.922 575.583 361.288 574.817 361.288 573.85C361.288 572.8 360.888 572.008 360.088 571.475C359.288 570.925 357.922 570.65 355.988 570.65H352.013L352.938 561.5H362.813V563.675H355.038L354.563 568.475H356.513ZM370.747 568.475C373.247 568.475 375.08 568.95 376.247 569.9C377.43 570.833 378.022 572.117 378.022 573.75C378.022 574.783 377.772 575.717 377.272 576.55C376.789 577.367 376.047 578.017 375.047 578.5C374.064 578.967 372.847 579.2 371.397 579.2C370.164 579.2 368.972 579.017 367.822 578.65C366.672 578.267 365.722 577.742 364.972 577.075L366.122 575.1C366.722 575.667 367.489 576.125 368.422 576.475C369.355 576.808 370.339 576.975 371.372 576.975C372.689 576.975 373.705 576.7 374.422 576.15C375.155 575.583 375.522 574.817 375.522 573.85C375.522 572.8 375.122 572.008 374.322 571.475C373.522 570.925 372.155 570.65 370.222 570.65H366.247L367.172 561.5H377.047V563.675H369.272L368.797 568.475H370.747ZM387.652 568.375C388.802 568.375 389.827 568.592 390.727 569.025C391.644 569.458 392.361 570.083 392.877 570.9C393.394 571.7 393.652 572.625 393.652 573.675C393.652 574.775 393.377 575.742 392.827 576.575C392.294 577.408 391.552 578.058 390.602 578.525C389.669 578.975 388.619 579.2 387.452 579.2C385.102 579.2 383.286 578.442 382.002 576.925C380.736 575.408 380.102 573.258 380.102 570.475C380.102 568.525 380.444 566.867 381.127 565.5C381.827 564.117 382.794 563.075 384.027 562.375C385.277 561.658 386.727 561.3 388.377 561.3C389.227 561.3 390.027 561.392 390.777 561.575C391.527 561.742 392.177 561.992 392.727 562.325L391.777 564.275C390.944 563.725 389.827 563.45 388.427 563.45C386.611 563.45 385.186 564.017 384.152 565.15C383.119 566.267 382.602 567.9 382.602 570.05C382.602 570.317 382.611 570.525 382.627 570.675C383.127 569.925 383.811 569.358 384.677 568.975C385.561 568.575 386.552 568.375 387.652 568.375ZM387.352 577.175C388.502 577.175 389.436 576.867 390.152 576.25C390.869 575.633 391.227 574.808 391.227 573.775C391.227 572.742 390.861 571.925 390.127 571.325C389.411 570.708 388.444 570.4 387.227 570.4C386.444 570.4 385.744 570.55 385.127 570.85C384.527 571.15 384.052 571.558 383.702 572.075C383.369 572.592 383.202 573.167 383.202 573.8C383.202 574.417 383.361 574.983 383.677 575.5C384.011 576 384.486 576.408 385.102 576.725C385.736 577.025 386.486 577.175 387.352 577.175Z" fill="white"/>
<rect x="288" y="535" width="110" height="4" rx="2" fill="white" fill-opacity="0.55"/>
<rect x="103" y="535" width="110" height="4" rx="2" fill="#DFDCF0"/>
<path d="M195.609 66.42C193.112 66.42 190.849 65.8833 188.819 64.81C186.812 63.7133 185.225 62.2083 184.059 60.295C182.915 58.3583 182.344 56.1767 182.344 53.75C182.344 51.3233 182.915 49.1533 184.059 47.24C185.225 45.3033 186.812 43.7983 188.819 42.725C190.849 41.6283 193.124 41.08 195.644 41.08C197.767 41.08 199.68 41.4533 201.384 42.2C203.11 42.9467 204.557 44.02 205.724 45.42L202.084 48.78C200.427 46.8667 198.374 45.91 195.924 45.91C194.407 45.91 193.054 46.2483 191.864 46.925C190.674 47.5783 189.74 48.5 189.064 49.69C188.41 50.88 188.084 52.2333 188.084 53.75C188.084 55.2667 188.41 56.62 189.064 57.81C189.74 59 190.674 59.9333 191.864 60.61C193.054 61.2633 194.407 61.59 195.924 61.59C198.374 61.59 200.427 60.6217 202.084 58.685L205.724 62.045C204.557 63.4683 203.11 64.5533 201.384 65.3C199.657 66.0467 197.732 66.42 195.609 66.42ZM217.478 66.28C215.495 66.28 213.71 65.8717 212.123 65.055C210.56 64.215 209.335 63.06 208.448 61.59C207.561 60.12 207.118 58.4517 207.118 56.585C207.118 54.7183 207.561 53.05 208.448 51.58C209.335 50.11 210.56 48.9667 212.123 48.15C213.71 47.31 215.495 46.89 217.478 46.89C219.461 46.89 221.235 47.31 222.798 48.15C224.361 48.9667 225.586 50.11 226.473 51.58C227.36 53.05 227.803 54.7183 227.803 56.585C227.803 58.4517 227.36 60.12 226.473 61.59C225.586 63.06 224.361 64.215 222.798 65.055C221.235 65.8717 219.461 66.28 217.478 66.28ZM217.478 61.8C218.878 61.8 220.021 61.3333 220.908 60.4C221.818 59.4433 222.273 58.1717 222.273 56.585C222.273 54.9983 221.818 53.7383 220.908 52.805C220.021 51.8483 218.878 51.37 217.478 51.37C216.078 51.37 214.923 51.8483 214.013 52.805C213.103 53.7383 212.648 54.9983 212.648 56.585C212.648 58.1717 213.103 59.4433 214.013 60.4C214.923 61.3333 216.078 61.8 217.478 61.8ZM231.453 40.03H236.913V66H231.453V40.03ZM250.94 66.28C248.957 66.28 247.172 65.8717 245.585 65.055C244.022 64.215 242.797 63.06 241.91 61.59C241.023 60.12 240.58 58.4517 240.58 56.585C240.58 54.7183 241.023 53.05 241.91 51.58C242.797 50.11 244.022 48.9667 245.585 48.15C247.172 47.31 248.957 46.89 250.94 46.89C252.923 46.89 254.697 47.31 256.26 48.15C257.823 48.9667 259.048 50.11 259.935 51.58C260.822 53.05 261.265 54.7183 261.265 56.585C261.265 58.4517 260.822 60.12 259.935 61.59C259.048 63.06 257.823 64.215 256.26 65.055C254.697 65.8717 252.923 66.28 250.94 66.28ZM250.94 61.8C252.34 61.8 253.483 61.3333 254.37 60.4C255.28 59.4433 255.735 58.1717 255.735 56.585C255.735 54.9983 255.28 53.7383 254.37 52.805C253.483 51.8483 252.34 51.37 250.94 51.37C249.54 51.37 248.385 51.8483 247.475 52.805C246.565 53.7383 246.11 54.9983 246.11 56.585C246.11 58.1717 246.565 59.4433 247.475 60.4C248.385 61.3333 249.54 61.8 250.94 61.8ZM283.885 47.17V66H278.705V63.76C277.981 64.5767 277.118 65.2067 276.115 65.65C275.111 66.07 274.026 66.28 272.86 66.28C270.386 66.28 268.426 65.5683 266.98 64.145C265.533 62.7217 264.81 60.61 264.81 57.81V47.17H270.27V57.005C270.27 60.0383 271.541 61.555 274.085 61.555C275.391 61.555 276.441 61.135 277.235 60.295C278.028 59.4317 278.425 58.16 278.425 56.48V47.17H283.885ZM294.158 49.655C294.811 48.745 295.686 48.0567 296.783 47.59C297.903 47.1233 299.186 46.89 300.633 46.89V51.93C300.026 51.8833 299.618 51.86 299.408 51.86C297.845 51.86 296.62 52.3033 295.733 53.19C294.846 54.0533 294.403 55.36 294.403 57.11V66H288.943V47.17H294.158V49.655ZM310.283 66.28C308.719 66.28 307.191 66.0933 305.698 65.72C304.204 65.3233 303.014 64.8333 302.128 64.25L303.948 60.33C304.788 60.8667 305.803 61.31 306.993 61.66C308.183 61.9867 309.349 62.15 310.493 62.15C312.803 62.15 313.958 61.5783 313.958 60.435C313.958 59.8983 313.643 59.5133 313.013 59.28C312.383 59.0467 311.414 58.8483 310.108 58.685C308.568 58.4517 307.296 58.1833 306.293 57.88C305.289 57.5767 304.414 57.04 303.668 56.27C302.944 55.5 302.583 54.4033 302.583 52.98C302.583 51.79 302.921 50.74 303.598 49.83C304.298 48.8967 305.301 48.1733 306.608 47.66C307.938 47.1467 309.501 46.89 311.298 46.89C312.628 46.89 313.946 47.0417 315.253 47.345C316.583 47.625 317.679 48.0217 318.543 48.535L316.723 52.42C315.066 51.4867 313.258 51.02 311.298 51.02C310.131 51.02 309.256 51.1833 308.673 51.51C308.089 51.8367 307.798 52.2567 307.798 52.77C307.798 53.3533 308.113 53.7617 308.743 53.995C309.373 54.2283 310.376 54.45 311.753 54.66C313.293 54.9167 314.553 55.1967 315.533 55.5C316.513 55.78 317.364 56.305 318.088 57.075C318.811 57.845 319.173 58.9183 319.173 60.295C319.173 61.4617 318.823 62.5 318.123 63.41C317.423 64.32 316.396 65.0317 315.043 65.545C313.713 66.035 312.126 66.28 310.283 66.28Z" fill="white"/>
<rect x="180" y="78" width="141" height="4" rx="2" fill="white" fill-opacity="0.55"/>
</svg>
